<svg width="512" height="512" xmlns="http://www.w3.org/2000/svg">

 <g>
  <title>background</title>
  <rect fill="none" id="canvas_background" height="402" width="582" y="-1" x="-1"/>
 </g>
 <g>
  <title>Layer 1</title>
  <path fill="#ffffff" id="svg_1" d="m74.966,437.013c-99.97,-99.97 -99.97,-262.065 0,-362.037c100.002,-99.97 262.066,-99.97 362.067,0c99.971,99.971 99.971,262.067 0,362.037c-100.001,99.985 -262.065,99.985 -362.067,0zm316.816,-316.786c-75.001,-74.985 -196.564,-74.985 -271.534,0c-75.001,74.985 -75.001,196.55 0,271.535c74.97,74.986 196.533,74.986 271.534,0c74.972,-74.987 74.972,-196.55 0,-271.535zm-203.658,248.91l-45.251,-45.266l67.876,-67.877l-67.876,-67.876l45.251,-45.267l67.876,67.892l67.877,-67.892l45.25,45.267l-67.876,67.876l67.876,67.877l-45.25,45.266l-67.877,-67.892l-67.876,67.892z"/>
 </g>
</svg>