<?xml version="1.0" encoding="utf-8"?>
<!-- Generator: Adobe Illustrator 22.1.0, SVG Export Plug-In . SVG Version: 6.00 Build 0)  -->
<svg version="1.1" id="Слой_1" xmlns="http://www.w3.org/2000/svg" xmlns:xlink="http://www.w3.org/1999/xlink" x="0px" y="0px"
	 viewBox="0 0 43.9 41.3" style="enable-background:new 0 0 43.9 41.3;" xml:space="preserve">
<style type="text/css">
	.st0{fill:none;}
	.st1{fill:#FFFFFF;}
</style>
<g>
	<title>background</title>
	<rect id="canvas_background" x="-3.1" y="-5" class="st0" width="582" height="402"/>
</g>
<g>
	<title>Layer 1</title>
	<path id="svg_2" class="st1" d="M21.9,41.3l-0.7-0.7c0,0-17.7-17.7-17.9-17.9C-1.4,17.2-1.1,9,3.9,4c2.6-2.6,6-4,9.7-4
		c3,0,5.9,1,8.3,2.8c5.4-4.1,13-3.7,18,1.2l0,0c2.6,2.6,4,6,4,9.6c0,3.4-1.2,6.5-3.3,9l0,0c-0.4,0.4-2.7,2.7-18,18L21.9,41.3z
		 M13.6,2c-3.2,0-6.1,1.2-8.3,3.4C1,9.7,0.8,16.7,4.8,21.3c0.1,0.2,13.8,13.9,17.1,17.2c6.8-6.8,16.4-16.4,17.1-17.2v-0.1
		c1.9-2.1,2.9-4.8,2.9-7.6c0-3.1-1.2-6-3.4-8.2c-4.4-4.3-11.3-4.6-15.9-0.6l-0.7,0.6l-0.7-0.6C19.1,3,16.4,2,13.6,2z"/>
</g>
</svg>
