<svg id="laptop" xmlns="http://www.w3.org/2000/svg" xmlns:xlink="http://www.w3.org/1999/xlink" viewBox="0 0 252.23 162.85"><defs><style>.cls-1{mask:url(#mask);}.cls-2,.cls-3{mix-blend-mode:multiply;}.cls-2{fill:url(#linear-gradient);}.cls-3{fill:url(#linear-gradient-2);}.cls-4{fill:none;}.cls-5{fill:#010101;}.cls-6{fill:#09090a;}.cls-7{fill:#303031;}.cls-8{fill:url(#linear-gradient-3);}.cls-9{fill:url(#linear-gradient-4);}.cls-10{fill:url(#linear-gradient-5);}.cls-11{fill:url(#linear-gradient-6);}.cls-12{fill:url(#linear-gradient-7);}.cls-13{mask:url(#mask-3);}.cls-14{clip-path:url(#clip-path);}.cls-15{fill:#fff;}.cls-16{fill:#343534;}.cls-17{fill:url(#radial-gradient);}.cls-18{fill:#282827;}.cls-19{fill:url(#linear-gradient-8);}.cls-20{fill:url(#linear-gradient-9);}.cls-21{fill:url(#linear-gradient-10);}.cls-22{fill:url(#linear-gradient-11);}.cls-23{fill:url(#linear-gradient-12);}.cls-24{fill:url(#linear-gradient-13);}.cls-25{fill:url(#linear-gradient-14);}.cls-26{filter:url(#luminosity-noclip-3);}.cls-27{filter:url(#luminosity-noclip);}</style><filter id="luminosity-noclip" x="94.93" y="-8031.77" width="136.19" height="32766" filterUnits="userSpaceOnUse" color-interpolation-filters="sRGB"><feFlood flood-color="#fff" result="bg"/><feBlend in="SourceGraphic" in2="bg"/></filter><mask id="mask" x="94.93" y="-8031.77" width="136.19" height="32766" maskUnits="userSpaceOnUse"><g class="cls-27"/></mask><linearGradient id="linear-gradient" x1="151.76" y1="179.81" x2="230.31" y2="3.36" gradientUnits="userSpaceOnUse"><stop offset="0"/><stop offset="0.11" stop-color="#0a0a0a"/><stop offset="0.31" stop-color="#272727"/><stop offset="0.56" stop-color="#545454"/><stop offset="0.86" stop-color="#939393"/><stop offset="1" stop-color="#b3b3b3"/></linearGradient><linearGradient id="linear-gradient-2" x1="151.76" y1="179.81" x2="230.31" y2="3.36" gradientUnits="userSpaceOnUse"><stop offset="0"/><stop offset="0.17" stop-color="#353535"/><stop offset="0.48" stop-color="#8a8a8a"/><stop offset="0.73" stop-color="#c9c9c9"/><stop offset="0.91" stop-color="#f0f0f0"/><stop offset="1" stop-color="#fff"/></linearGradient><linearGradient id="linear-gradient-3" x1="125.9" y1="154.46" x2="125.9" y2="152.2" gradientUnits="userSpaceOnUse"><stop offset="0" stop-color="#686969"/><stop offset="0.05" stop-color="#7e7f7f"/><stop offset="0.16" stop-color="#a9aaaa"/><stop offset="0.26" stop-color="#cacbcb"/><stop offset="0.36" stop-color="#e2e3e3"/><stop offset="0.45" stop-color="#f0f1f1"/><stop offset="0.53" stop-color="#f5f6f6"/><stop offset="0.62" stop-color="#f2f3f3"/><stop offset="0.7" stop-color="#e8e9e9"/><stop offset="0.78" stop-color="#d7d8d8"/><stop offset="0.85" stop-color="#bfc0c0"/><stop offset="0.91" stop-color="#a0a1a1"/><stop offset="0.98" stop-color="#7a7b7c"/><stop offset="0.99" stop-color="#6f7071"/></linearGradient><linearGradient id="linear-gradient-4" x1="215.79" y1="154.46" x2="215.79" y2="152.2" xlink:href="#linear-gradient-3"/><linearGradient id="linear-gradient-5" x1="36.01" y1="154.46" x2="36.01" y2="152.2" xlink:href="#linear-gradient-3"/><linearGradient id="linear-gradient-6" x1="125.68" y1="158.54" x2="125.68" y2="2.3" gradientUnits="userSpaceOnUse"><stop offset="0" stop-color="#b3b3b3"/><stop offset="0.01" stop-color="#b4b4b4"/><stop offset="0.35" stop-color="#e3e4e4"/><stop offset="0.53" stop-color="#f5f6f6"/><stop offset="0.65" stop-color="#e6e6e6"/><stop offset="0.87" stop-color="#bebebe"/><stop offset="0.99" stop-color="#a6a6a6"/></linearGradient><linearGradient id="linear-gradient-7" x1="28.22" y1="74.16" x2="222.88" y2="74.16" gradientUnits="userSpaceOnUse"><stop offset="0" stop-color="#efebeb"/><stop offset="1" stop-color="#fff"/></linearGradient><filter id="luminosity-noclip-3" x="94.93" y="2.31" width="136.19" height="152.2" filterUnits="userSpaceOnUse" color-interpolation-filters="sRGB"><feFlood flood-color="#fff" result="bg"/><feBlend in="SourceGraphic" in2="bg"/></filter><mask id="mask-3" x="95.15" y="0" width="136.19" height="152.2" maskUnits="userSpaceOnUse"><g class="cls-26"><g transform="translate(0.22 -2.3)"><g class="cls-1"><path class="cls-2" d="M231.12,6.33V154.5H94.93L184.87,2.31h42.22A4,4,0,0,1,231.12,6.33Z"/></g></g></g></mask><clipPath id="clip-path" transform="translate(0.22 -2.3)"><path class="cls-4" d="M231.12,6.33V154.5H94.93L184.87,2.31h42.22A4,4,0,0,1,231.12,6.33Z"/></clipPath><radialGradient id="radial-gradient" cx="125.44" cy="6.67" r="1.32" gradientUnits="userSpaceOnUse"><stop offset="0" stop-color="#292929"/><stop offset="1" stop-color="#171717"/></radialGradient><linearGradient id="linear-gradient-8" x1="78.88" y1="163.79" x2="78.88" y2="157.02" gradientUnits="userSpaceOnUse"><stop offset="0" stop-color="#afb0b2"/><stop offset="1" stop-color="#f5f6f6"/></linearGradient><linearGradient id="linear-gradient-9" x1="187.85" y1="163.79" x2="187.85" y2="157.03" xlink:href="#linear-gradient-8"/><linearGradient id="linear-gradient-10" x1="93.6" y1="159.93" x2="158.18" y2="159.93" gradientUnits="userSpaceOnUse"><stop offset="0" stop-color="#acabab"/><stop offset="0.51" stop-color="#f5f6f6"/><stop offset="1" stop-color="#acabab"/></linearGradient><linearGradient id="linear-gradient-11" x1="125.89" y1="165.16" x2="125.89" y2="163.62" gradientUnits="userSpaceOnUse"><stop offset="0" stop-color="#1f1f1f"/><stop offset="0.3" stop-color="#4e4f4f"/><stop offset="0.61" stop-color="#818282"/><stop offset="1" stop-color="#d2d2d2"/></linearGradient><linearGradient id="linear-gradient-12" x1="-879.57" y1="160.39" x2="-751.61" y2="160.39" gradientTransform="matrix(-1, 0, 0, 1, -627.73, 0)" gradientUnits="userSpaceOnUse"><stop offset="0" stop-color="#8c8c8c"/><stop offset="0.04" stop-color="#efefef"/><stop offset="0.04" stop-color="#eee"/><stop offset="0.1" stop-color="#d9d8d8"/><stop offset="0.17" stop-color="#cac9c9"/><stop offset="0.25" stop-color="#c1c0c0"/><stop offset="0.36" stop-color="#bebdbd"/></linearGradient><linearGradient id="linear-gradient-13" x1="-0.06" y1="160.4" x2="127.91" y2="160.4" gradientTransform="matrix(1, 0, 0, 1, 0, 0)" xlink:href="#linear-gradient-12"/><linearGradient id="linear-gradient-14" x1="125.89" y1="162.67" x2="125.89" y2="157.19" gradientUnits="userSpaceOnUse"><stop offset="0" stop-color="#eff0f0"/><stop offset="0.21" stop-color="#e4e5e5"/><stop offset="0.58" stop-color="#c6c7c7"/><stop offset="1" stop-color="#9d9e9e"/></linearGradient></defs><title>notebook</title><g id="laptop_frae" data-name="laptop frae"><path class="cls-5" d="M231.12,6.33V154.5h-7.61v2.26H207.62V154.5h-.23v2.26H93.61l-1,1.78H24.26a4,4,0,0,1-4-4V6.33a4,4,0,0,1,4-4H227.09A4,4,0,0,1,231.12,6.33Z" transform="translate(0.22 -2.3)"/><path class="cls-6" d="M227.1,4a2.35,2.35,0,0,1,2.34,2.35V154.77a2.34,2.34,0,0,1-2.34,2.34H23.43a1.52,1.52,0,0,1-1.52-1.52V6.31A2.35,2.35,0,0,1,24.26,4Zm0-.71H24.26A3.06,3.06,0,0,0,21.2,6.31V155.59a2.23,2.23,0,0,0,2.23,2.23H227.1a3,3,0,0,0,3.05-3V6.31a3.06,3.06,0,0,0-3.05-3.06Z" transform="translate(0.22 -2.3)"/><path class="cls-7" d="M93.61,156.76l-1,1.78H24.26a4,4,0,0,1-4-4H230.42a4,4,0,0,1-4,4H158.1l-1-1.78Z" transform="translate(0.22 -2.3)"/><rect class="cls-7" x="207.85" y="152.2" width="15.88" height="2.26"/><rect class="cls-8" x="44.18" y="152.2" width="163.43" height="2.26"/><rect class="cls-9" x="207.85" y="152.2" width="15.88" height="2.26"/><rect class="cls-10" x="28.07" y="152.2" width="15.88" height="2.25"/><path class="cls-11" d="M227.09,3.1a3.23,3.23,0,0,1,3.23,3.23V154.51a3.23,3.23,0,0,1-3.23,3.23H24.27A3.24,3.24,0,0,1,21,154.51V6.33A3.24,3.24,0,0,1,24.27,3.1Zm0-.8H24.27a4,4,0,0,0-4,4V154.51a4,4,0,0,0,4,4H227.09a4,4,0,0,0,4-4V6.33a4,4,0,0,0-4-4Z" transform="translate(0.22 -2.3)"/></g><rect id="screen" class="cls-12" x="28.22" y="9.35" width="194.66" height="129.61"/><g class="cls-13"><g id="reflection"><g class="cls-13"><g class="cls-14"><polygon class="cls-15" points="95.15 148.47 161.25 0 228.17 0 231.34 1.41 231.34 152.2 95.15 148.47"/><polygon class="cls-15" points="231.34 1.41 228.17 0 231.34 0 231.34 1.41"/></g></g></g></g><g id="webcam"><path class="cls-16" d="M126.57,7.8a1.6,1.6,0,0,1-2.67-.71,1.61,1.61,0,0,1,.42-1.55,1.59,1.59,0,0,1,2.25,2.26Z" transform="translate(0.22 -2.3)"/><path class="cls-17" d="M126.38,7.61A1.34,1.34,0,0,1,125.1,8a1.3,1.3,0,0,1-.93-.94,1.32,1.32,0,0,1,1.62-1.61,1.31,1.31,0,0,1,.93.93A1.34,1.34,0,0,1,126.38,7.61Z" transform="translate(0.22 -2.3)"/><path class="cls-18" d="M125.73,7a.41.41,0,0,1-.39.11.4.4,0,1,1,.49-.49A.38.38,0,0,1,125.73,7Z" transform="translate(0.22 -2.3)"/></g><g id="laptop_body" data-name="laptop body"><path class="cls-19" d="M33.5,157.17l124.47,0-63.62,1.38,1.1,1.72A10.29,10.29,0,0,0,98,162.51a1,1,0,0,0,.29.12,1,1,0,0,0,.31,0h29.34v1H.51a.56.56,0,0,1-.57-.55v-5.34a.52.52,0,0,1,.17-.39.75.75,0,0,1,.4-.16c.13,0,13.08,0,33,0Zm0-.15H.5a.85.85,0,0,0-.51.21.67.67,0,0,0-.21.5v5.34a.72.72,0,0,0,.73.71H128.07v-1.27H98.57a1.16,1.16,0,0,1-.27,0,.86.86,0,0,1-.24-.11,10.42,10.42,0,0,1-2.48-2.17l-.54-.85-.4-.62,31.53-.68,31.81-.69V157L33.5,157Z" transform="translate(0.22 -2.3)"/><path class="cls-20" d="M251.27,157.19a.59.59,0,0,1,.4.16.52.52,0,0,1,.17.39v5.34a.56.56,0,0,1-.57.55H123.87v-1h29.34a1,1,0,0,0,.31,0,1,1,0,0,0,.29-.12,10.53,10.53,0,0,0,2.52-2.21,9.09,9.09,0,0,0,1.64-3.1Zm0-.16H157.85l0,.12a9,9,0,0,1-1.61,3,10.42,10.42,0,0,1-2.48,2.17.85.85,0,0,1-.25.11,1,1,0,0,1-.26,0h-29.5v1.27H251.27a.72.72,0,0,0,.73-.71v-5.34a.67.67,0,0,0-.21-.5.78.78,0,0,0-.52-.21Z" transform="translate(0.22 -2.3)"/><path class="cls-21" d="M158,157.19a6.23,6.23,0,0,1-.4,1.25,7.83,7.83,0,0,1-1.32,2.13,16.69,16.69,0,0,1-1.27,1.21,2.25,2.25,0,0,1-1.81.89H98.61a2.73,2.73,0,0,1-.44,0,2.9,2.9,0,0,1-1.37-.85,16.69,16.69,0,0,1-1.27-1.21,8,8,0,0,1-1.33-2.13,7.88,7.88,0,0,1-.4-1.25Zm.21-.16H93.6l0,.19a7.36,7.36,0,0,0,.41,1.28,8.06,8.06,0,0,0,1.35,2.17,14.82,14.82,0,0,0,1.09,1.05l.19.17a3,3,0,0,0,1.45.89,2.8,2.8,0,0,0,.48.05h54.56a2.59,2.59,0,0,0,.47-.05,3,3,0,0,0,1.46-.89l.18-.17a13.52,13.52,0,0,0,1.1-1.05,8.06,8.06,0,0,0,1.35-2.17,7.36,7.36,0,0,0,.41-1.28l0-.19Z" transform="translate(0.22 -2.3)"/><path class="cls-22" d="M251.78,163.62a10.85,10.85,0,0,1-2.2,1,13.51,13.51,0,0,1-3.85.57H6.05a13.51,13.51,0,0,1-3.85-.57,10.61,10.61,0,0,1-2.2-1Z" transform="translate(0.22 -2.3)"/><path class="cls-23" d="M123.87,162.67v1h127.4a.56.56,0,0,0,.57-.54v-5.35a.52.52,0,0,0-.17-.38.67.67,0,0,0-.4-.16c-.37,0-59.9,0-93.29,0a9.37,9.37,0,0,1-.55,1.41,9.76,9.76,0,0,1-1.1,1.71,10.53,10.53,0,0,1-2.52,2.21,1.16,1.16,0,0,1-.29.13,1.45,1.45,0,0,1-.31,0Z" transform="translate(0.22 -2.3)"/><path class="cls-24" d="M127.91,162.67v1H.51a.56.56,0,0,1-.57-.54v-5.35a.52.52,0,0,1,.17-.38.67.67,0,0,1,.4-.16c.37,0,59.87,0,93.3,0a8.7,8.7,0,0,0,.54,1.39,8.59,8.59,0,0,0,1.1,1.71A10.29,10.29,0,0,0,98,162.5a1.16,1.16,0,0,0,.29.13,1.38,1.38,0,0,0,.31,0Z" transform="translate(0.22 -2.3)"/><path class="cls-25" d="M158,157.19a6.23,6.23,0,0,1-.4,1.25,7.83,7.83,0,0,1-1.32,2.13,16.69,16.69,0,0,1-1.27,1.21,2.25,2.25,0,0,1-1.81.89H98.61a2.73,2.73,0,0,1-.44,0,2.9,2.9,0,0,1-1.37-.85,16.69,16.69,0,0,1-1.27-1.21,8,8,0,0,1-1.33-2.13,7.88,7.88,0,0,1-.4-1.25Z" transform="translate(0.22 -2.3)"/></g></svg>