<?xml version="1.0" encoding="utf-8"?>
<!-- Generator: Adobe Illustrator 22.1.0, SVG Export Plug-In . SVG Version: 6.00 Build 0)  -->
<svg version="1.1" id="Layer_1" xmlns="http://www.w3.org/2000/svg" xmlns:xlink="http://www.w3.org/1999/xlink" x="0px" y="0px"
	 viewBox="0 0 45.8 45.8" style="enable-background:new 0 0 45.8 45.8;" xml:space="preserve">
<style type="text/css">
	.st0{fill:#FFFFFF;}
</style>
<g>
	<g id="Icon-Clock" transform="translate(378.000000, 428.000000)">
		<path id="Fill-131" class="st0" d="M-355.1-382.2c-12.6,0-22.9-10.3-22.9-22.9s10.3-22.9,22.9-22.9s22.9,10.3,22.9,22.9
			C-332.1-392.5-342.4-382.2-355.1-382.2L-355.1-382.2z M-355.1-425.6c-11.3,0-20.4,9.2-20.4,20.4s9.2,20.4,20.4,20.4
			s20.4-9.2,20.4-20.4S-343.8-425.6-355.1-425.6L-355.1-425.6z"/>
		<polyline id="Fill-132" class="st0" points="-347.9,-393.4 -356.4,-401.9 -356.4,-417.4 -353.7,-417.4 -353.7,-403 -346,-395.3 
			-347.9,-393.4 		"/>
	</g>
</g>
</svg>
