<svg id="PC" xmlns="http://www.w3.org/2000/svg" xmlns:xlink="http://www.w3.org/1999/xlink" viewBox="0 0 313.51 254.1"><defs><style>.cls-1{mask:url(#mask);filter:url(#luminosity-noclip-5);}.cls-2,.cls-4,.cls-6,.cls-8{mix-blend-mode:multiply;}.cls-2{fill:url(#linear-gradient);}.cls-3{mask:url(#mask-2);filter:url(#luminosity-noclip-6);}.cls-4{fill:url(#linear-gradient-2);}.cls-5,.cls-7{mask:url(#mask-3);}.cls-5{filter:url(#luminosity-noclip-7);}.cls-6{fill:url(#linear-gradient-3);}.cls-8{fill:url(#linear-gradient-4);}.cls-9{fill:none;}.cls-10{fill:url(#linear-gradient-5);}.cls-11{fill:url(#linear-gradient-6);}.cls-12{mask:url(#mask-5);}.cls-13{fill:url(#linear-gradient-7);}.cls-14{mask:url(#mask-6);}.cls-15{fill:url(#linear-gradient-8);}.cls-16{fill:#010101;}.cls-17{fill:url(#linear-gradient-9);}.cls-18{fill:url(#linear-gradient-10);}.cls-19{mask:url(#mask-7);}.cls-20{clip-path:url(#clip-path);}.cls-21{fill:#fff;}.cls-22{filter:url(#luminosity-noclip-3);}.cls-23{filter:url(#luminosity-noclip-2);}.cls-24{filter:url(#luminosity-noclip);}</style><filter id="luminosity-noclip" x="106.25" y="-8123.08" width="27.38" height="32766" filterUnits="userSpaceOnUse" color-interpolation-filters="sRGB"><feFlood flood-color="#fff" result="bg"/><feBlend in="SourceGraphic" in2="bg"/></filter><mask id="mask" x="106.25" y="-8123.08" width="27.38" height="32766" maskUnits="userSpaceOnUse"><g class="cls-24"/></mask><linearGradient id="linear-gradient" x1="113.57" y1="257.37" x2="127.55" y2="243.4" gradientUnits="userSpaceOnUse"><stop offset="0" stop-color="#ccc"/><stop offset="0.15" stop-color="#c9c9c9"/><stop offset="0.28" stop-color="#bebebe"/><stop offset="0.37" stop-color="#b1b1b1"/><stop offset="0.45" stop-color="#a6a6a6"/><stop offset="0.57" stop-color="#878787"/><stop offset="0.75" stop-color="#565656"/><stop offset="0.95" stop-color="#121212"/><stop offset="1"/></linearGradient><filter id="luminosity-noclip-2" x="181.3" y="-8123.08" width="26.53" height="32766" filterUnits="userSpaceOnUse" color-interpolation-filters="sRGB"><feFlood flood-color="#fff" result="bg"/><feBlend in="SourceGraphic" in2="bg"/></filter><mask id="mask-2" x="181.3" y="-8123.08" width="26.53" height="32766" maskUnits="userSpaceOnUse"><g class="cls-23"/></mask><linearGradient id="linear-gradient-2" x1="391.54" y1="257.16" x2="405.44" y2="243.26" gradientTransform="matrix(-1, 0, 0, 1, 592.27, 0)" xlink:href="#linear-gradient"/><filter id="luminosity-noclip-3" x="142.27" y="-8123.08" width="171.23" height="32766" filterUnits="userSpaceOnUse" color-interpolation-filters="sRGB"><feFlood flood-color="#fff" result="bg"/><feBlend in="SourceGraphic" in2="bg"/></filter><mask id="mask-3" x="142.27" y="-8123.08" width="171.23" height="32766" maskUnits="userSpaceOnUse"><g class="cls-22"/></mask><linearGradient id="linear-gradient-3" x1="213.72" y1="219.3" x2="310.63" y2="1.63" gradientUnits="userSpaceOnUse"><stop offset="0"/><stop offset="0.11" stop-color="#0a0a0a"/><stop offset="0.31" stop-color="#272727"/><stop offset="0.56" stop-color="#545454"/><stop offset="0.86" stop-color="#939393"/><stop offset="1" stop-color="#b3b3b3"/></linearGradient><linearGradient id="linear-gradient-4" x1="213.72" y1="219.3" x2="310.63" y2="1.63" gradientUnits="userSpaceOnUse"><stop offset="0"/><stop offset="0.09" stop-color="#0a0a0a"/><stop offset="0.23" stop-color="#272727"/><stop offset="0.43" stop-color="#545454"/><stop offset="0.66" stop-color="#949494"/><stop offset="0.92" stop-color="#e3e3e3"/><stop offset="1" stop-color="#fff"/></linearGradient><linearGradient id="linear-gradient-5" x1="157.04" y1="253.14" x2="157.04" y2="209.98" gradientUnits="userSpaceOnUse"><stop offset="0.14" stop-color="#b5b5b5"/><stop offset="0.21" stop-color="#b8b8b8"/><stop offset="0.25" stop-color="#dbdcdc"/><stop offset="0.28" stop-color="#e9e9ea"/><stop offset="0.34" stop-color="#dedede"/><stop offset="0.34" stop-color="#dbdbdb"/><stop offset="0.39" stop-color="#c8c8c8"/><stop offset="0.43" stop-color="#bababa"/><stop offset="0.49" stop-color="#b2b2b2"/><stop offset="0.6" stop-color="#b0b0b0"/><stop offset="0.63" stop-color="#acacac"/><stop offset="0.73" stop-color="#a5a5a5"/><stop offset="1" stop-color="#a3a3a3"/></linearGradient><linearGradient id="linear-gradient-6" x1="157.04" y1="254.1" x2="157.04" y2="249.57" gradientUnits="userSpaceOnUse"><stop offset="0" stop-color="#444549"/><stop offset="0.03" stop-color="#444549"/><stop offset="1" stop-color="#4e5153"/></linearGradient><filter id="luminosity-noclip-5" x="106.25" y="238.39" width="27.38" height="14.51" filterUnits="userSpaceOnUse" color-interpolation-filters="sRGB"><feFlood flood-color="#fff" result="bg"/><feBlend in="SourceGraphic" in2="bg"/></filter><mask id="mask-5" x="106.25" y="238.39" width="27.38" height="14.51" maskUnits="userSpaceOnUse"><g class="cls-1"><path class="cls-2" d="M133.63,252.9c-3.48-.09-7-.21-10.57-.36-1.88-.07-3.75-.16-5.61-.25,0,0-8.93-.2-10.5-1.55a3.79,3.79,0,0,1-.45-.47,1.25,1.25,0,0,1-.25-.7c0-.55.48-1,1-1.37a42.73,42.73,0,0,1,5.8-3.58,16.06,16.06,0,0,0,6.08-6.23,22.32,22.32,0,0,1,5.54,2.67A23.94,23.94,0,0,1,133.63,252.9Z"/></g></mask><linearGradient id="linear-gradient-7" x1="113.57" y1="257.37" x2="127.55" y2="243.4" gradientUnits="userSpaceOnUse"><stop offset="0" stop-color="#f1f2f4"/><stop offset="0.35" stop-color="#f1f2f4"/><stop offset="0.37" stop-color="#f1f2f4"/><stop offset="0.64" stop-color="#e6e7e9"/><stop offset="1" stop-color="#d0d1d2"/></linearGradient><filter id="luminosity-noclip-6" x="181.3" y="238.39" width="26.53" height="14.49" filterUnits="userSpaceOnUse" color-interpolation-filters="sRGB"><feFlood flood-color="#fff" result="bg"/><feBlend in="SourceGraphic" in2="bg"/></filter><mask id="mask-6" x="181.3" y="238.39" width="26.53" height="14.49" maskUnits="userSpaceOnUse"><g class="cls-3"><path class="cls-4" d="M181.3,252.88q4.8-.13,9.71-.34c1.89-.07,3.76-.16,5.62-.25,0,0,8.93-.2,10.5-1.55a4.71,4.71,0,0,0,.45-.47,1.25,1.25,0,0,0,.25-.7,2.13,2.13,0,0,0-1-1.37,44.09,44.09,0,0,0-5.8-3.58,16,16,0,0,1-6.08-6.23,19.94,19.94,0,0,0-5.55,2.67A21.51,21.51,0,0,0,181.3,252.88Z"/></g></mask><linearGradient id="linear-gradient-8" x1="391.54" y1="257.16" x2="405.44" y2="243.26" gradientTransform="matrix(-1, 0, 0, 1, 592.27, 0)" xlink:href="#linear-gradient-7"/><linearGradient id="linear-gradient-9" y1="201.83" x2="313.51" y2="201.83" gradientUnits="userSpaceOnUse"><stop offset="0" stop-color="#a6a6a6"/><stop offset="0.23" stop-color="#c1c1c2"/><stop offset="0.48" stop-color="#d7d7d8"/><stop offset="0.72" stop-color="#e4e4e5"/><stop offset="0.93" stop-color="#e8e8ea"/></linearGradient><linearGradient id="linear-gradient-10" x1="11.89" y1="94.34" x2="301.57" y2="94.34" gradientUnits="userSpaceOnUse"><stop offset="0" stop-color="#efebeb"/><stop offset="1" stop-color="#fff"/></linearGradient><filter id="luminosity-noclip-7" x="142.27" y="0" width="171.23" height="187.49" filterUnits="userSpaceOnUse" color-interpolation-filters="sRGB"><feFlood flood-color="#fff" result="bg"/><feBlend in="SourceGraphic" in2="bg"/></filter><mask id="mask-7" x="142.27" y="0" width="171.23" height="187.49" maskUnits="userSpaceOnUse"><g class="cls-5"><path class="cls-6" d="M313.51,8.3V187.46l-171.24,0L253.06,0H305.2A8.31,8.31,0,0,1,313.51,8.3Z"/></g></mask><clipPath id="clip-path"><path class="cls-9" d="M313.51,8.3V187.46l-171.24,0L253.06,0H305.2A8.31,8.31,0,0,1,313.51,8.3Z"/></clipPath></defs><title>tv</title><g id="stand"><path class="cls-10" d="M157,253.1c-19.64.26-39.59-.81-39.59-.81s-8.94-.2-10.51-1.55a2.68,2.68,0,0,1-.44-.47,1.18,1.18,0,0,1-.25-.7c0-.55.48-1,.94-1.37a43.68,43.68,0,0,1,5.81-3.58,16.68,16.68,0,0,0,7.1-8.34c1-2.31,2.87-20.08,2.87-20.08l.39-4.45L142,210.23l8.52.29c.16,0,5.07-.41,6.49-.54,1.41.13,6.32.54,6.48.54l8.53-.29,18.66,1.52.39,4.45S192.94,234,194,236.28a16.57,16.57,0,0,0,7.1,8.34,44.09,44.09,0,0,1,5.8,3.58c.46.39.93.82,1,1.35a1.26,1.26,0,0,1-.25.72,3.23,3.23,0,0,1-.45.47c-1.57,1.35-10.5,1.55-10.5,1.55S176.68,253.36,157,253.1Z"/><path class="cls-11" d="M157,254.1c-1,0-14.13-.15-19.42-.15-5.5,0-22.45-.81-22.45-.81s-5.78-.11-8-1.29c-.68-.36-.91-.7-.9-1l0-1.27a1.18,1.18,0,0,0,.25.7,2.68,2.68,0,0,0,.44.47c1.57,1.35,10.51,1.55,10.51,1.55s20,1.07,39.59.81c19.64.26,39.59-.81,39.59-.81s8.93-.2,10.5-1.55a3.23,3.23,0,0,0,.45-.47,1.25,1.25,0,0,0,.25-.7l0,1.27c0,.31-.23.65-.9,1-2.28,1.18-8.06,1.29-8.06,1.29s-17,.81-22.45.81C171.17,254,158,254.09,157,254.1Z"/><g class="cls-12"><path class="cls-13" d="M133.63,252.9c-3.48-.09-7-.21-10.57-.36-1.88-.07-3.75-.16-5.61-.25,0,0-8.93-.2-10.5-1.55a3.79,3.79,0,0,1-.45-.47,1.25,1.25,0,0,1-.25-.7c0-.55.48-1,1-1.37a42.73,42.73,0,0,1,5.8-3.58,16.06,16.06,0,0,0,6.08-6.23,22.32,22.32,0,0,1,5.54,2.67A23.94,23.94,0,0,1,133.63,252.9Z"/></g><g class="cls-14"><path class="cls-15" d="M181.3,252.88q4.8-.13,9.71-.34c1.89-.07,3.76-.16,5.62-.25,0,0,8.93-.2,10.5-1.55a4.71,4.71,0,0,0,.45-.47,1.25,1.25,0,0,0,.25-.7,2.13,2.13,0,0,0-1-1.37,44.09,44.09,0,0,0-5.8-3.58,16,16,0,0,1-6.08-6.23,19.94,19.94,0,0,0-5.55,2.67A21.51,21.51,0,0,0,181.3,252.88Z"/></g></g><g id="frame"><path class="cls-16" d="M313.51,8.3V197.64H0V8.3A8.31,8.31,0,0,1,8.3,0H305.2A8.31,8.31,0,0,1,313.51,8.3Z"/><path class="cls-17" d="M0,187.46H313.51a0,0,0,0,1,0,0V207.9a8.3,8.3,0,0,1-8.3,8.3H8.3A8.3,8.3,0,0,1,0,207.9V187.46A0,0,0,0,1,0,187.46Z"/></g><rect id="screen" class="cls-18" x="11.89" y="12.19" width="289.69" height="164.3"/><g class="cls-19"><g id="reflection"><g class="cls-19"><g class="cls-20"><polygon class="cls-21" points="142.27 183.76 224.09 0 306.97 0 313.51 2.91 313.51 187.49 142.27 187.49 142.27 183.76"/><polygon class="cls-21" points="313.51 2.91 306.97 0 313.51 0 313.51 2.91"/></g></g></g></g></svg>